<svg xmlns="http://www.w3.org/2000/svg" width="60mm" height="60mm" viewBox="0 0 600 600" role="img" aria-label="Roteiro — roteiro.dev">
  <title>Roteiro sticker — roteiro.dev</title>
  <defs><clipPath id="disc"><circle cx="300" cy="300" r="300"/></clipPath></defs>
  <g clip-path="url(#disc)">
    <circle cx="300" cy="300" r="300" fill="#1a2733"/>
    <circle cx="300" cy="300" r="286" fill="none" stroke="#f7f5f0" stroke-width="4" stroke-opacity="0.35"/>
    <g stroke-linecap="round" stroke-linejoin="round">
      <path d="M 205 372 L 288 300 L 345 336 L 408 226" fill="none" stroke="#f7f5f0" stroke-width="20"/>
      <!-- inferred continuation: a dashed, model-suggested course (AI/inference) -->
      <path d="M 408 226 L 452 149" fill="none" stroke="#0fb6c8" stroke-width="12" stroke-dasharray="2 22" opacity="0.9"/>
      <!-- derived: structure, solid -->
      <circle cx="205" cy="372" r="26" fill="#0e6e8c" stroke="#f7f5f0" stroke-width="8"/>
      <!-- authored: intent / spec-driven, a gold ring -->
      <circle cx="345" cy="336" r="14" fill="#1a2733" stroke="#d6b45a" stroke-width="8"/>
      <!-- inferred: AI-suggested, bright + a touch faded -->
      <circle cx="408" cy="226" r="22" fill="#0fb6c8" stroke="#f7f5f0" stroke-width="8" opacity="0.92"/>
    </g>
    <text x="300" y="470" text-anchor="middle" font-family="Arial, Helvetica, sans-serif" font-size="76" font-weight="800" letter-spacing="1" fill="#f7f5f0">roteiro</text>
    <text x="114.4" y="120.8" transform="rotate(-46.0 114.4 120.8)" text-anchor="middle" font-family="Arial, Helvetica, sans-serif" font-size="40" font-weight="700" fill="#f7f5f0">r</text>
    <text x="145.5" y="93.4" transform="rotate(-36.8 145.5 93.4)" text-anchor="middle" font-family="Arial, Helvetica, sans-serif" font-size="40" font-weight="700" fill="#f7f5f0">o</text>
    <text x="180.5" y="71.4" transform="rotate(-27.6 180.5 71.4)" text-anchor="middle" font-family="Arial, Helvetica, sans-serif" font-size="40" font-weight="700" fill="#f7f5f0">t</text>
    <text x="218.6" y="55.2" transform="rotate(-18.4 218.6 55.2)" text-anchor="middle" font-family="Arial, Helvetica, sans-serif" font-size="40" font-weight="700" fill="#f7f5f0">e</text>
    <text x="258.8" y="45.3" transform="rotate(-9.2 258.8 45.3)" text-anchor="middle" font-family="Arial, Helvetica, sans-serif" font-size="40" font-weight="700" fill="#f7f5f0">i</text>
    <text x="300.0" y="42.0" transform="rotate(0.0 300.0 42.0)" text-anchor="middle" font-family="Arial, Helvetica, sans-serif" font-size="40" font-weight="700" fill="#f7f5f0">r</text>
    <text x="341.2" y="45.3" transform="rotate(9.2 341.2 45.3)" text-anchor="middle" font-family="Arial, Helvetica, sans-serif" font-size="40" font-weight="700" fill="#f7f5f0">o</text>
    <text x="381.4" y="55.2" transform="rotate(18.4 381.4 55.2)" text-anchor="middle" font-family="Arial, Helvetica, sans-serif" font-size="40" font-weight="700" fill="#f7f5f0">.</text>
    <text x="419.5" y="71.4" transform="rotate(27.6 419.5 71.4)" text-anchor="middle" font-family="Arial, Helvetica, sans-serif" font-size="40" font-weight="700" fill="#f7f5f0">d</text>
    <text x="454.5" y="93.4" transform="rotate(36.8 454.5 93.4)" text-anchor="middle" font-family="Arial, Helvetica, sans-serif" font-size="40" font-weight="700" fill="#f7f5f0">e</text>
    <text x="485.6" y="120.8" transform="rotate(46.0 485.6 120.8)" text-anchor="middle" font-family="Arial, Helvetica, sans-serif" font-size="40" font-weight="700" fill="#f7f5f0">v</text>
    <text x="53.7" y="366.0" transform="rotate(75.0 53.7 366.0)" text-anchor="middle" font-family="Arial, Helvetica, sans-serif" font-size="21" font-weight="600" fill="#0fb6c8">D</text>
    <text x="60.9" y="388.7" transform="rotate(69.6 60.9 388.7)" text-anchor="middle" font-family="Arial, Helvetica, sans-serif" font-size="21" font-weight="600" fill="#0fb6c8">E</text>
    <text x="70.3" y="410.6" transform="rotate(64.3 70.3 410.6)" text-anchor="middle" font-family="Arial, Helvetica, sans-serif" font-size="21" font-weight="600" fill="#0fb6c8">R</text>
    <text x="81.6" y="431.6" transform="rotate(58.9 81.6 431.6)" text-anchor="middle" font-family="Arial, Helvetica, sans-serif" font-size="21" font-weight="600" fill="#0fb6c8">I</text>
    <text x="94.8" y="451.4" transform="rotate(53.6 94.8 451.4)" text-anchor="middle" font-family="Arial, Helvetica, sans-serif" font-size="21" font-weight="600" fill="#0fb6c8">V</text>
    <text x="109.9" y="469.9" transform="rotate(48.2 109.9 469.9)" text-anchor="middle" font-family="Arial, Helvetica, sans-serif" font-size="21" font-weight="600" fill="#0fb6c8">E</text>
    <text x="126.6" y="486.9" transform="rotate(42.9 126.6 486.9)" text-anchor="middle" font-family="Arial, Helvetica, sans-serif" font-size="21" font-weight="600" fill="#0fb6c8">D</text>
    <text x="144.8" y="502.3" transform="rotate(37.5 144.8 502.3)" text-anchor="middle" font-family="Arial, Helvetica, sans-serif" font-size="21" font-weight="600" fill="#0fb6c8"> </text>
    <text x="164.3" y="515.9" transform="rotate(32.1 164.3 515.9)" text-anchor="middle" font-family="Arial, Helvetica, sans-serif" font-size="21" font-weight="600" fill="#0fb6c8">·</text>
    <text x="185.1" y="527.6" transform="rotate(26.8 185.1 527.6)" text-anchor="middle" font-family="Arial, Helvetica, sans-serif" font-size="21" font-weight="600" fill="#0fb6c8"> </text>
    <text x="206.8" y="537.4" transform="rotate(21.4 206.8 537.4)" text-anchor="middle" font-family="Arial, Helvetica, sans-serif" font-size="21" font-weight="600" fill="#0fb6c8">A</text>
    <text x="229.4" y="545.0" transform="rotate(16.1 229.4 545.0)" text-anchor="middle" font-family="Arial, Helvetica, sans-serif" font-size="21" font-weight="600" fill="#0fb6c8">U</text>
    <text x="252.6" y="550.6" transform="rotate(10.7 252.6 550.6)" text-anchor="middle" font-family="Arial, Helvetica, sans-serif" font-size="21" font-weight="600" fill="#0fb6c8">T</text>
    <text x="276.2" y="553.9" transform="rotate(5.4 276.2 553.9)" text-anchor="middle" font-family="Arial, Helvetica, sans-serif" font-size="21" font-weight="600" fill="#0fb6c8">H</text>
    <text x="300.0" y="555.0" transform="rotate(0.0 300.0 555.0)" text-anchor="middle" font-family="Arial, Helvetica, sans-serif" font-size="21" font-weight="600" fill="#0fb6c8">O</text>
    <text x="323.8" y="553.9" transform="rotate(-5.4 323.8 553.9)" text-anchor="middle" font-family="Arial, Helvetica, sans-serif" font-size="21" font-weight="600" fill="#0fb6c8">R</text>
    <text x="347.4" y="550.6" transform="rotate(-10.7 347.4 550.6)" text-anchor="middle" font-family="Arial, Helvetica, sans-serif" font-size="21" font-weight="600" fill="#0fb6c8">E</text>
    <text x="370.6" y="545.0" transform="rotate(-16.1 370.6 545.0)" text-anchor="middle" font-family="Arial, Helvetica, sans-serif" font-size="21" font-weight="600" fill="#0fb6c8">D</text>
    <text x="393.2" y="537.4" transform="rotate(-21.4 393.2 537.4)" text-anchor="middle" font-family="Arial, Helvetica, sans-serif" font-size="21" font-weight="600" fill="#0fb6c8"> </text>
    <text x="414.9" y="527.6" transform="rotate(-26.8 414.9 527.6)" text-anchor="middle" font-family="Arial, Helvetica, sans-serif" font-size="21" font-weight="600" fill="#0fb6c8">·</text>
    <text x="435.7" y="515.9" transform="rotate(-32.1 435.7 515.9)" text-anchor="middle" font-family="Arial, Helvetica, sans-serif" font-size="21" font-weight="600" fill="#0fb6c8"> </text>
    <text x="455.2" y="502.3" transform="rotate(-37.5 455.2 502.3)" text-anchor="middle" font-family="Arial, Helvetica, sans-serif" font-size="21" font-weight="600" fill="#0fb6c8">I</text>
    <text x="473.4" y="486.9" transform="rotate(-42.9 473.4 486.9)" text-anchor="middle" font-family="Arial, Helvetica, sans-serif" font-size="21" font-weight="600" fill="#0fb6c8">N</text>
    <text x="490.1" y="469.9" transform="rotate(-48.2 490.1 469.9)" text-anchor="middle" font-family="Arial, Helvetica, sans-serif" font-size="21" font-weight="600" fill="#0fb6c8">F</text>
    <text x="505.2" y="451.4" transform="rotate(-53.6 505.2 451.4)" text-anchor="middle" font-family="Arial, Helvetica, sans-serif" font-size="21" font-weight="600" fill="#0fb6c8">E</text>
    <text x="518.4" y="431.6" transform="rotate(-58.9 518.4 431.6)" text-anchor="middle" font-family="Arial, Helvetica, sans-serif" font-size="21" font-weight="600" fill="#0fb6c8">R</text>
    <text x="529.7" y="410.6" transform="rotate(-64.3 529.7 410.6)" text-anchor="middle" font-family="Arial, Helvetica, sans-serif" font-size="21" font-weight="600" fill="#0fb6c8">R</text>
    <text x="539.1" y="388.7" transform="rotate(-69.6 539.1 388.7)" text-anchor="middle" font-family="Arial, Helvetica, sans-serif" font-size="21" font-weight="600" fill="#0fb6c8">E</text>
    <text x="546.3" y="366.0" transform="rotate(-75.0 546.3 366.0)" text-anchor="middle" font-family="Arial, Helvetica, sans-serif" font-size="21" font-weight="600" fill="#0fb6c8">D</text>
  </g>
</svg>
